PathFileType  4	(X/Y/Z) D:\Research_projects\MuscleProsody\BulkSports2Dtrack\RetrackedSports2D\p1_sample60_cam1\p1_sample60_cam1_Sports2D\pose-3d
DataRate	CameraRate	NumFrames	NumMarkers	Units	OrigDataRate	OrigDataStartFrame	OrigNumFrames
60.0	60.0	14	22	m	60.0	585	780
Frame#	Time	Hip			RHip			RKnee			RAnkle			RBigToe			RSmallToe			RHeel			LHip			LKnee			LAnkle			LBigToe			LSmallToe			LHeel			Neck			Head			Nose			RShoulder			RElbow			RWrist			LShoulder			LElbow			LWrist			
		X1	Y1	Z1	X2	Y2	Z2	X3	Y3	Z3	X4	Y4	Z4	X5	Y5	Z5	X6	Y6	Z6	X7	Y7	Z7	X8	Y8	Z8	X9	Y9	Z9	X10	Y10	Z10	X11	Y11	Z11	X12	Y12	Z12	X13	Y13	Z13	X14	Y14	Z14	X15	Y15	Z15	X16	Y16	Z16	X17	Y17	Z17	X18	Y18	Z18	X19	Y19	Z19	X20	Y20	Z20	X21	Y21	Z21	X22	Y22	Z22	

586	9.7500000	1.6601594	0.7551718	0.0301000	1.5815362	0.8012961	0.0301000	1.3638538	0.4651753	0.1290000	1.1291539	0.1484568	0.0230000	1.1739069	-0.0120435	0.2179000	1.1026217	0.0093935	0.1804000	1.0779583	0.1341197	-0.0119000	1.7385496	0.7155872	0.0301000	1.5132039	0.4065937	0.1290000	1.2754009	0.1494653	0.0230000	1.3121363	-0.0068841	0.2179000	1.3423143	0.0175319	0.1804000	1.2175883	0.1372664	-0.0119000	2.0143300	1.2522194	0.0008000	2.2409998	1.4529275	0.0655000	2.1616969	1.2932290	0.1076000	1.7928334	1.2617268	-0.0127500	1.6769680	1.0012100	0.0702000	2.0078233	0.8839672	0.1076000	2.0608926	1.0925066	-0.0127500	1.9801134	0.8591452	0.0702000	1.8956699	0.7830581	0.1076000
587	9.7666667	1.6594845	0.7552338	0.0301000	1.5808519	0.8013980	0.0301000	1.3632225	0.4653442	0.1290000	1.1289027	0.1486637	0.0230000	1.1742177	-0.0120502	0.2179000	1.1025132	0.0094017	0.1804000	1.0777970	0.1342870	-0.0119000	1.7379429	0.7155384	0.0301000	1.5129435	0.4066134	0.1290000	1.2753823	0.1497451	0.0230000	1.3120071	-0.0070778	0.2179000	1.3422685	0.0175697	0.1804000	1.2177259	0.1375729	-0.0119000	2.0146198	1.2522039	0.0008000	2.2412354	1.4528888	0.0655000	2.1615455	1.2932724	0.1076000	1.7926362	1.2618386	-0.0127500	1.6738225	1.0019956	0.0702000	1.9999938	0.8879927	0.1076000	2.0612665	1.0921725	-0.0127500	1.9806870	0.8588301	0.0702000	1.9040886	0.7781900	0.1076000
588	9.7833333	1.6586305	0.7549506	0.0301000	1.5800542	0.8010988	0.0301000	1.3624008	0.4652539	0.1290000	1.1286652	0.1489731	0.0230000	1.1746319	-0.0120501	0.2179000	1.1023484	0.0094801	0.1804000	1.0778071	0.1344766	-0.0119000	1.7371839	0.7149780	0.0301000	1.5124638	0.4063107	0.1290000	1.2752710	0.1500228	0.0230000	1.3119314	-0.0074931	0.2179000	1.3422509	0.0175362	0.1804000	1.2178990	0.1377892	-0.0119000	2.0151226	1.2522130	0.0008000	2.2417255	1.4527451	0.0655000	2.1615932	1.2932377	0.1076000	1.7924290	1.2621773	-0.0127500	1.6686243	1.0038489	0.0702000	1.9860193	0.8945355	0.1076000	2.0616239	1.0918040	-0.0127500	1.9807367	0.8585849	0.0702000	1.9180058	0.7709492	0.1076000
589	9.8000000	1.6576248	0.7543230	0.0301000	1.5791637	0.8003571	0.0301000	1.3613936	0.4648708	0.1290000	1.1284651	0.1493595	0.0230000	1.1750734	-0.0120371	0.2179000	1.1021001	0.0096368	0.1804000	1.0780143	0.1346471	-0.0119000	1.7362647	0.7138956	0.0301000	1.5117516	0.4056485	0.1290000	1.2750552	0.1502704	0.0230000	1.3119055	-0.0081472	0.2179000	1.3422465	0.0174186	0.1804000	1.2181206	0.1378787	-0.0119000	2.0158241	1.2522573	0.0008000	2.2424822	1.4524990	0.0655000	2.1618512	1.2931529	0.1076000	1.7922197	1.2627226	-0.0127500	1.6616289	1.0067263	0.0702000	1.9658585	0.9034703	0.1076000	2.0619548	1.0913933	-0.0127500	1.9803915	0.8582374	0.0702000	1.9368306	0.7617674	0.1076000
590	9.8166667	1.6565137	0.7533692	0.0301000	1.5782128	0.7991472	0.0301000	1.3602007	0.4641489	0.1290000	1.1283152	0.1497947	0.0230000	1.1754732	-0.0120082	0.2179000	1.1017640	0.0098720	0.1804000	1.0784318	0.1347485	-0.0119000	1.7351836	0.7123033	0.0301000	1.5107810	0.4045954	0.1290000	1.2747196	0.1504498	0.0230000	1.3119251	-0.0090340	0.2179000	1.3422493	0.0172152	0.1804000	1.2183933	0.1378015	-0.0119000	2.0167063	1.2523305	0.0008000	2.2435131	1.4521503	0.0655000	2.1623250	1.2930481	0.1076000	1.7920271	1.2634327	-0.0127500	1.6531777	1.0105241	0.0702000	1.9395713	0.9146523	0.1076000	2.0622561	1.0909376	-0.0127500	1.9798240	0.8576050	0.0702000	1.9597272	0.7512018	0.1076000
591	9.8333333	1.6553536	0.7521294	0.0301000	1.5772391	0.7974797	0.0301000	1.3588289	0.4630477	0.1290000	1.1282192	0.1502455	0.0230000	1.1757849	-0.0119696	0.2179000	1.1013721	0.0101735	0.1804000	1.0790752	0.1347356	-0.0119000	1.7339530	0.7102541	0.0301000	1.5095401	0.4031517	0.1290000	1.2742553	0.1505223	0.0230000	1.3119857	-0.0101087	0.2179000	1.3422591	0.0169472	0.1804000	1.2187020	0.1375222	-0.0119000	2.0177487	1.2523997	0.0008000	2.2448198	1.4516887	0.0655000	2.1630151	1.2929482	0.1076000	1.7918675	1.2642537	-0.0127500	1.6436665	1.0150924	0.0702000	1.9074124	0.9279022	0.1076000	2.0625414	1.0904340	-0.0127500	1.9792288	0.8566222	0.0702000	1.9856570	0.7399165	0.1076000
592	9.8500000	1.6542179	0.7506678	0.0301000	1.5762947	0.7954160	0.0301000	1.3573206	0.4615815	0.1290000	1.1281758	0.1506727	0.0230000	1.1759807	-0.0119263	0.2179000	1.1009747	0.0105218	0.1804000	1.0799567	0.1345764	-0.0119000	1.7326189	0.7078617	0.0301000	1.5080607	0.4013753	0.1290000	1.2736753	0.1504660	0.0230000	1.3120814	-0.0112940	0.2179000	1.3422703	0.0166478	0.1804000	1.2190066	0.1370283	-0.0119000	2.0189158	1.2524160	0.0008000	2.2463890	1.4511008	0.0655000	2.1639128	1.2928648	0.1076000	1.7917438	1.2651157	-0.0127500	1.6335324	1.0202486	0.0702000	1.8699425	0.9429796	0.1076000	2.0628334	1.0898797	-0.0127500	1.9787693	0.8554322	0.0702000	2.0134365	0.7286791	0.1076000
593	9.8666667	1.6531923	0.7490586	0.0301000	1.5754471	0.7930555	0.0301000	1.3557582	0.4598418	0.1290000	1.1281820	0.1510384	0.0230000	1.1760423	-0.0118652	0.2179000	1.1006116	0.0109024	0.1804000	1.0810685	0.1342586	-0.0119000	1.7312662	0.7052799	0.0301000	1.5064222	0.3993762	0.1290000	1.2730200	0.1502845	0.0230000	1.3122063	-0.0125005	0.2179000	1.3422722	0.0163455	0.1804000	1.2192488	0.1363451	-0.0119000	2.0201459	1.2523377	0.0008000	2.2481827	1.4503817	0.0655000	2.1649946	1.2927893	0.1076000	1.7916495	1.2659306	-0.0127500	1.6232551	1.0257932	0.0702000	1.8281232	0.9595446	0.1076000	2.0631492	1.0892806	-0.0127500	1.9785296	0.8543315	0.0702000	2.0418071	0.7182713	0.1076000
594	9.8833333	1.6523484	0.7473751	0.0301000	1.5747573	0.7905067	0.0301000	1.3542283	0.4579627	0.1290000	1.1282357	0.1513159	0.0230000	1.1759618	-0.0117600	0.2179000	1.1002920	0.0113179	0.1804000	1.0823824	0.1337882	-0.0119000	1.7299990	0.7026557	0.0301000	1.5047313	0.3972816	0.1290000	1.2723454	0.1499978	0.0230000	1.3123571	-0.0136473	0.2179000	1.3422576	0.0160599	0.1804000	1.2193769	0.1355278	-0.0119000	2.0213582	1.2521451	0.0008000	2.2501444	1.4495358	0.0655000	2.1662187	1.2926949	0.1076000	1.7915772	1.2666081	-0.0127500	1.6133387	1.0315384	0.0702000	1.7833151	0.9771303	0.1076000	2.0634952	1.0886583	-0.0127500	1.9784982	0.8536006	0.0702000	2.0695628	0.7092978	0.1076000
595	9.9000000	1.6517234	0.7456818	0.0301000	1.5742537	0.7878633	0.0301000	1.3527856	0.4560665	0.1290000	1.1283369	0.1514973	0.0230000	1.1757450	-0.0115879	0.2179000	1.1000006	0.0117869	0.1804000	1.0838552	0.1331853	-0.0119000	1.7289051	0.7000988	0.0301000	1.5030872	0.3951970	0.1290000	1.2717027	0.1496268	0.0230000	1.3125363	-0.0146751	0.2179000	1.3422308	0.0158015	0.1804000	1.2193685	0.1346358	-0.0119000	2.0224716	1.2518428	0.0008000	2.2522130	1.4485745	0.0655000	2.1675266	1.2925443	0.1076000	1.7915179	1.2670804	-0.0127500	1.6042619	1.0373354	0.0702000	1.7371695	0.9951412	0.1076000	2.0638640	1.0880474	-0.0127500	1.9785781	0.8533822	0.0702000	2.0956836	0.7020504	0.1076000
596	9.9166667	1.6513224	0.7440204	0.0301000	1.5739321	0.7851935	0.0301000	1.3514593	0.4542399	0.1290000	1.1284865	0.1515977	0.0230000	1.1754133	-0.0113353	0.2179000	1.0997258	0.0123278	0.1804000	1.0854274	0.1324840	-0.0119000	1.7280297	0.6976756	0.0301000	1.5015536	0.3931979	0.1290000	1.2711184	0.1491863	0.0230000	1.3127604	-0.0155463	0.2179000	1.3422162	0.0155691	0.1804000	1.2192341	0.1337164	-0.0119000	2.0234219	1.2514541	0.0008000	2.2543251	1.4475168	0.0655000	2.1688481	1.2922967	0.1076000	1.7914581	1.2673166	-0.0127500	1.5964245	1.0430764	0.0702000	1.6915076	1.0128589	0.1076000	2.0642319	1.0874819	-0.0127500	1.9786175	0.8536853	0.0702000	2.1193436	0.6965342	0.1076000
597	9.9333333	1.6511331	0.7424048	0.0301000	1.5737771	0.7825488	0.0301000	1.3502838	0.4525425	0.1290000	1.1286888	0.1516501	0.0230000	1.1750016	-0.0110016	0.2179000	1.0994767	0.0129403	0.1804000	1.0870281	0.1317326	-0.0119000	1.7273761	0.6954177	0.0301000	1.5001557	0.3913452	0.1290000	1.2705885	0.1486888	0.0230000	1.3130629	-0.0162374	0.2179000	1.3422546	0.0153530	0.1804000	1.2190029	0.1328002	-0.0119000	2.0241705	1.2510165	0.0008000	2.2564092	1.4463899	0.0655000	2.1701051	1.2919179	0.1076000	1.7913847	1.2673221	-0.0127500	1.5901119	1.0486698	0.0702000	1.6481912	1.0294779	0.1076000	2.0645653	1.0869785	-0.0127500	1.9784471	0.8544467	0.0702000	2.1398466	0.6925714	0.1076000
598	9.9500000	1.6511395	0.7408415	0.0301000	1.5737792	0.7799890	0.0301000	1.3493102	0.4510208	0.1290000	1.1289489	0.1516939	0.0230000	1.1745574	-0.0106104	0.2179000	1.0992775	0.0135988	0.1804000	1.0885843	0.1309869	-0.0119000	1.7269285	0.6933441	0.0301000	1.4989053	0.3896957	0.1290000	1.2700939	0.1481475	0.0230000	1.3134719	-0.0167384	0.2179000	1.3423834	0.0151475	0.1804000	1.2187046	0.1319037	-0.0119000	2.0247036	1.2505745	0.0008000	2.2583871	1.4452214	0.0655000	2.1712181	1.2913963	0.1076000	1.7912876	1.2671258	-0.0127500	1.5854626	1.0539971	0.0702000	1.6089121	1.0442130	0.1076000	2.0648277	1.0865348	-0.0127500	1.9779170	0.8555654	0.0702000	2.1566435	0.6898625	0.1076000
599	9.9666667	1.6513231	0.7393578	0.0301000	1.5739334	0.7776092	0.0301000	1.3485883	0.4497122	0.1290000	1.1292638	0.1517644	0.0230000	1.1741342	-0.0102111	0.2179000	1.0991556	0.0142539	0.1804000	1.0900150	0.1303069	-0.0119000	1.7266718	0.6914891	0.0301000	1.4978224	0.3882995	0.1290000	1.2696197	0.1475829	0.0230000	1.3139858	-0.0170576	0.2179000	1.3426132	0.0149604	0.1804000	1.2183631	0.1310438	-0.0119000	2.0250284	1.2501708	0.0008000	2.2601786	1.4440399	0.0655000	2.1721196	1.2907501	0.1076000	1.7911585	1.2667684	-0.0127500	1.5824489	1.0588824	0.0702000	1.5750007	1.0564169	0.1076000	2.0649830	1.0861457	-0.0127500	1.9769274	0.8569115	0.0702000	2.1694055	0.6880174	0.1076000
